<svg width="88" height="87" viewBox="0 0 88 87" fill="none" xmlns="http://www.w3.org/2000/svg">
<path d="M43.5004 9.88406C24.9354 9.88422 9.88546 24.9342 9.88546 43.4993C9.88546 62.0644 24.9355 77.1145 43.5007 77.1145C62.0658 77.1145 77.1159 62.0644 77.1159 43.4993C77.1159 40.8664 79.2507 38.7316 81.8837 38.7316C84.5166 38.7316 86.6514 40.8664 86.6514 43.4993C86.6514 67.3328 67.3318 86.65 43.5007 86.65C19.6696 86.65 0.35 67.3328 0.35 43.4993C0.35 27.1567 9.58347 12.2146 24.2033 4.90463C38.8207 -2.40283 56.316 -0.826326 69.3916 8.97971C71.4984 10.5604 71.9245 13.5471 70.3437 15.654L70.3436 15.6542C68.7654 17.7608 65.7768 18.1892 63.67 16.6091C57.8618 12.2252 50.7783 9.86401 43.5004 9.88406ZM43.5004 9.88406C43.5005 9.88406 43.5006 9.88406 43.5007 9.88406V10.2341L43.4997 9.88406C43.5 9.88406 43.5002 9.88406 43.5004 9.88406Z" fill="white" stroke="#F1F7FF" stroke-width="0.7"/>
</svg>
