<svg width="30" height="87" viewBox="0 0 30 87" fill="none" xmlns="http://www.w3.org/2000/svg">
<path d="M16 0V57.5" stroke="white" stroke-width="2"/>
<path d="M14.2161 73.8699L14.4573 74.0997L14.6987 73.8702L20.8988 67.9774C21.4593 67.5283 22.2917 67.5628 22.8088 68.0556C23.3172 68.54 23.3502 69.3065 22.89 69.8284L16.7084 75.7362C16.7082 75.7365 16.7079 75.7367 16.7077 75.7369C16.1128 76.2991 15.3036 76.6148 14.4594 76.6104L14.4573 76.6104C13.6177 76.6111 12.8155 76.2953 12.2243 75.7366C12.2242 75.7365 12.2241 75.7363 12.2239 75.7362L8.50512 72.1924L8.50512 72.1924L8.50381 72.1912C8.23974 71.9421 8.09451 71.6057 8.09451 71.2588C8.09451 70.9121 8.23956 70.5762 8.50414 70.3261L8.50432 70.3259C9.05372 69.8056 9.94722 69.8055 10.4968 70.3255C10.4969 70.3256 10.497 70.3258 10.4972 70.3259L14.2161 73.8699Z" fill="white" stroke="#F1F7FF" stroke-width="0.7"/>
<path d="M23.937 62.9663L23.9369 62.9665C23.4743 63.5549 22.5863 63.6807 21.9599 63.2331C19.9287 61.7723 17.4539 60.9869 14.9129 60.9935C8.43749 60.9937 3.15904 66.0003 3.15904 72.2113C3.15904 78.4224 8.43775 83.4291 14.9134 83.4291C21.3891 83.4291 26.6678 78.4224 26.6678 72.2113C26.6678 71.497 27.2806 70.8893 28.0723 70.8893C28.864 70.8893 29.4768 71.497 29.4768 72.2113C29.4768 79.8519 22.9725 86.0731 14.9134 86.0731C6.85431 86.0731 0.35 79.8519 0.35 72.2113C0.35 66.9705 3.45742 62.1685 8.39455 59.8161C13.3327 57.4635 19.2436 57.972 23.6581 61.127C24.2749 61.568 24.3923 62.3881 23.937 62.9663Z" fill="white" stroke="#F1F7FF" stroke-width="0.7"/>
</svg>
