<svg width="96" height="95" viewBox="0 0 96 95" fill="none" xmlns="http://www.w3.org/2000/svg">
<path d="M47.8443 0C21.4634 0 0 21.3068 0 47.4952C0 73.6837 21.4634 94.9905 47.8443 94.9905C74.2252 94.9905 95.6887 73.6837 95.6887 47.4952C95.6887 21.3068 74.2252 0 47.8443 0ZM87.8132 29.6667C85.1551 32.8066 82.1254 35.5647 80.8814 35.9442C79.2442 34.4251 75.2862 31.565 72.7535 33.1556C71.745 33.7895 70.7756 35.1906 71.8833 38.2654C73.3123 42.2389 76.8399 45.8392 78.917 47.7099C76.9449 50.0908 73.7599 54.3947 73.7599 57.3902C73.7599 57.9004 73.6625 58.0434 72.806 58.7798C71.599 59.8216 69.7729 61.3946 69.7729 65.3061C69.7729 67.8243 65.4413 69.9694 62.4978 70.9494C61.3804 69.5017 59.8054 67.0724 59.8054 65.306C59.8054 64.1774 60.0117 63.9145 60.4207 63.3869C61.1467 62.4535 61.799 61.4427 61.799 59.369C61.799 57.3861 61.1994 56.0199 60.6698 54.814C60.187 53.7143 59.8054 52.8446 59.8054 51.4531C59.8054 46.2873 49.8125 45.5162 43.8574 45.5162C42.2493 45.5162 39.8704 44.8882 39.8704 43.5372C39.8704 42.9207 39.814 42.2481 39.7497 41.537C39.5413 39.1851 39.3428 36.9645 41.2799 35.0417C44.3521 31.9919 49.6822 31.6636 51.8315 31.6636C53.9768 31.6636 54.6835 31.996 55.5811 32.4153C57.0646 33.111 58.4643 33.6426 61.7992 33.6426L64.1004 33.6697C68.3619 33.7296 72.0414 33.8031 74.2101 31.6849C75.2341 30.6858 75.7538 29.3465 75.7538 27.7057C75.7538 20.561 63.2068 19.7897 57.8122 19.7897C54.0626 19.7897 51.4345 21.0363 49.1159 22.1359C47.683 22.8163 46.4041 23.4231 45.018 23.6511C45.0198 23.5951 45.0258 23.5333 45.0374 23.4656C45.3217 21.6973 47.9324 19.009 50.7395 17.5964C52.7233 16.5974 55.0399 15.1556 55.3417 12.8501C55.4624 11.9302 55.2191 11.1107 54.8492 10.4246C57.4913 9.44339 62.4933 8.64766 66.8894 8.33801C76.1383 12.7894 83.5775 20.3473 87.8132 29.6667ZM15.948 69.2638V77.2846C8.5989 69.5345 4.05088 59.1446 3.99743 47.6984C7.41718 48.3767 8.79457 50.8049 10.2166 53.3722C10.9293 54.6594 11.6028 55.875 12.5449 56.8102C14.2464 58.4993 16.5319 58.7544 18.2003 58.9399C18.8252 59.0095 19.7713 59.1158 19.9348 59.369C19.9348 60.3952 19.413 61.1915 18.4903 62.5095C17.3576 64.1271 15.948 66.1427 15.948 69.2638ZM47.8443 91.0326C37.2505 91.0326 27.5236 87.2831 19.9352 81.053V69.264C19.9352 67.3816 20.7841 66.17 21.7652 64.7668C22.7756 63.3232 23.9222 61.6863 23.9222 59.369C23.9222 55.5947 20.4899 55.2121 18.6443 55.0073C17.3243 54.8603 16.0785 54.7212 15.364 54.0119C14.8228 53.4746 14.2815 52.4988 13.7093 51.4667C12.1497 48.6492 9.85294 44.5711 4.17965 43.7194C6.11735 21.4775 24.9452 3.95787 47.8443 3.95787C51.6104 3.95787 55.2469 4.48181 58.7371 5.37234C55.3568 6.00147 51.9533 6.97549 50.4219 8.49571C50.0345 8.88031 49.8224 9.40795 49.8379 9.95285C49.8555 10.4959 50.0967 11.01 50.5057 11.3733C51.222 12.0052 51.3603 12.3241 51.3876 12.3241C51.3428 12.4187 50.9768 13.0391 48.9365 14.0673C45.5685 15.7621 41.679 19.2311 41.1007 22.8413C40.8359 24.4801 41.3149 26.001 42.4478 27.1259C42.8216 27.497 43.3277 27.7057 43.8574 27.7057C46.6258 27.7057 48.7651 26.6892 50.8346 25.7074C52.9586 24.7003 54.9657 23.7476 57.8118 23.7476C65.6361 23.7476 71.7665 25.4869 71.7665 27.7055C71.7665 28.519 71.5114 28.7684 71.4142 28.8611C70.4349 29.8177 67.1002 29.756 64.1682 29.7114C63.3915 29.6979 62.5972 29.6843 61.799 29.6843C59.093 29.6843 58.2538 29.2919 57.2824 28.8359C56.1513 28.3064 54.8703 27.7053 51.8313 27.7053C48.5452 27.7053 42.4381 28.2947 38.4607 32.243C35.2076 35.4704 35.5521 39.3316 35.778 41.8847C35.8305 42.4722 35.8832 43.0288 35.8832 43.537C35.8832 47.4349 39.8956 49.4739 43.8574 49.4739C49.9508 49.4739 55.2189 50.6025 55.8184 51.4529C55.8184 53.6678 56.4823 55.1809 57.0157 56.3945C57.4595 57.4091 57.8118 58.2091 57.8118 59.3687C57.8118 60.2653 57.6638 60.4568 57.2648 60.967C56.5036 61.9488 55.8183 63.0175 55.8183 65.3056C55.8183 69.4703 59.8579 74.039 60.3173 74.5473C60.7008 74.9686 61.242 75.2005 61.7988 75.2005C61.9642 75.2005 62.1298 75.1813 62.2933 75.1388C63.4672 74.8391 73.7599 72.0273 73.7599 65.3058C73.7599 63.1993 74.4198 62.631 75.4204 61.769C76.4016 60.9225 77.7468 59.765 77.7468 57.3898C77.7468 55.8032 80.5833 51.708 83.2116 48.8227C83.5835 48.4149 83.7683 47.87 83.7197 47.321C83.6711 46.7722 83.3945 46.2678 82.9566 45.9314C81.4069 44.739 77.1279 40.8565 75.6952 37.0899C76.507 37.5112 77.5231 38.1973 78.3311 38.9993C78.9949 39.6622 79.8847 39.9791 80.8969 39.9387C83.5326 39.7891 86.9819 36.5661 89.4579 33.8354C90.8949 38.137 91.7015 42.7209 91.7015 47.4951C91.7017 71.5019 72.0274 91.0326 47.8443 91.0326Z" fill="#00A7EF"/>
</svg>
