<svg width="379" height="634" viewBox="0 0 379 634" fill="none" xmlns="http://www.w3.org/2000/svg">
<path d="M207.608 129.792H190.728V146.512H187.688V129.792H171.288V127.152H187.688V111.472H190.728V127.152H207.608V129.792Z" fill="#133CA7"/>
<path d="M42.7193 50.4876L31.7256 40.6239L21.9555 51.5134L19.9755 49.737L29.7457 38.8475L19.0646 29.2644L20.6073 27.545L31.2883 37.1281L40.4508 26.916L42.4307 28.6924L33.2683 38.9045L44.262 48.7682L42.7193 50.4876Z" fill="#133CA7"/>
<circle cx="47" cy="235" r="4.5" stroke="#133CA7" stroke-width="3"/>
<path d="M325.123 320.682L342.197 278.902L369.843 314.579L325.123 320.682Z" stroke="#133CA7" stroke-width="3"/>
<path d="M175.989 44C133.989 45 53.3758 73.1 68.9758 175.5C84.5758 277.9 113.476 354.5 125.976 380C130.976 394.667 143.676 424.3 154.476 425.5C165.276 426.7 163.309 409 160.976 400C153 386.5 167.876 383.2 177.476 392C187.076 400.8 201.142 427.333 206.976 439.5C210.976 447.5 221.576 460.5 231.976 448.5C242.376 436.5 211.976 395.5 195.476 376.5C199.309 383.833 209.676 396.3 220.476 387.5C221.476 383.5 220.176 372.3 206.976 359.5C210.809 366 221.176 376.6 231.976 367C233.976 363.667 234.076 353.3 218.476 338.5C222.642 347 233.576 360.8 243.976 348C247.142 345.167 249.176 336.6 231.976 325C210.476 310.5 121.976 219.5 118.476 147" stroke="#133CA7" stroke-width="3"/>
<path d="M280.5 528L304 541L249 573L193 541M193 541L217 529M193 541V602L249 632L304 602M263.5 518L249 508.5L232 518" stroke="#133CA7" stroke-width="3"/>
<path d="M304 602V541.5" stroke="#133CA7" stroke-width="3"/>
<mask id="path-8-inside-1" fill="white">
<path fill-rule="evenodd" clip-rule="evenodd" d="M215.526 500.324C215.509 499.885 215.5 499.444 215.5 499C215.5 481.051 230.051 466.5 248 466.5C265.949 466.5 280.5 481.051 280.5 499V542C280.5 546.694 276.694 550.5 272 550.5C267.306 550.5 263.5 546.694 263.5 542V527.573V499V496C263.5 487.44 256.56 480.5 248 480.5C239.44 480.5 232.5 487.44 232.5 496V501V525V527.573C232.386 527.511 232.273 527.449 232.161 527.386C231.13 530.919 227.866 533.5 224 533.5C219.306 533.5 215.5 529.694 215.5 525V501C215.5 500.772 215.509 500.547 215.526 500.324Z"/>
</mask>
<path d="M215.526 500.324L218.524 500.204L218.531 500.382L218.517 500.559L215.526 500.324ZM232.5 527.573H235.5V532.618L231.067 530.208L232.5 527.573ZM232.161 527.386L229.281 526.545L230.336 522.928L233.625 524.767L232.161 527.386ZM218.5 499C218.5 499.403 218.508 499.805 218.524 500.204L212.529 500.444C212.51 499.965 212.5 499.484 212.5 499H218.5ZM248 469.5C231.708 469.5 218.5 482.708 218.5 499H212.5C212.5 479.394 228.394 463.5 248 463.5V469.5ZM277.5 499C277.5 482.708 264.292 469.5 248 469.5V463.5C267.606 463.5 283.5 479.394 283.5 499H277.5ZM277.5 542V499H283.5V542H277.5ZM272 547.5C275.038 547.5 277.5 545.038 277.5 542H283.5C283.5 548.351 278.351 553.5 272 553.5V547.5ZM266.5 542C266.5 545.038 268.962 547.5 272 547.5V553.5C265.649 553.5 260.5 548.351 260.5 542H266.5ZM266.5 527.573V542H260.5V527.573H266.5ZM266.5 499V527.573H260.5V499H266.5ZM266.5 496V499H260.5V496H266.5ZM248 477.5C258.217 477.5 266.5 485.783 266.5 496H260.5C260.5 489.096 254.904 483.5 248 483.5V477.5ZM229.5 496C229.5 485.783 237.783 477.5 248 477.5V483.5C241.096 483.5 235.5 489.096 235.5 496H229.5ZM229.5 501V496H235.5V501H229.5ZM229.5 525V501H235.5V525H229.5ZM229.5 527.573V525H235.5V527.573H229.5ZM233.625 524.767C233.727 524.824 233.83 524.881 233.933 524.937L231.067 530.208C230.943 530.141 230.82 530.073 230.696 530.004L233.625 524.767ZM224 530.5C226.497 530.5 228.613 528.833 229.281 526.545L235.041 528.226C233.646 533.004 229.235 536.5 224 536.5V530.5ZM218.5 525C218.5 528.038 220.962 530.5 224 530.5V536.5C217.649 536.5 212.5 531.351 212.5 525H218.5ZM218.5 501V525H212.5V501H218.5ZM218.517 500.559C218.506 500.704 218.5 500.851 218.5 501H212.5C212.5 500.694 212.512 500.39 212.536 500.089L218.517 500.559Z" fill="#133CA7" mask="url(#path-8-inside-1)"/>
<path d="M249.5 573V631" stroke="#133CA7" stroke-width="3"/>
</svg>
