<svg width="612" height="603" viewBox="0 0 612 603" fill="none" xmlns="http://www.w3.org/2000/svg">
<path d="M404.332 203.862L388.05 173.469L421.699 187.037L404.332 203.862Z" stroke="#133CA7" stroke-width="3"/>
<path d="M421.699 203.352L412.473 194.125" stroke="#133CA7" stroke-width="4"/>
<path d="M492 135.275C494.895 132.923 502.42 129.088 509.367 132.562C518.051 136.903 518.594 148.301 510.995 154.813C504.917 160.024 495.799 170.01 492 174.352" stroke="#133CA7" stroke-width="3"/>
<path d="M493.773 135.275C490.879 132.923 483.353 129.088 476.406 132.562C467.722 136.903 467.18 148.301 474.778 154.813C480.856 160.024 489.974 170.01 493.773 174.352" stroke="#133CA7" stroke-width="3"/>
<path d="M479.228 155.899H484.655L488.455 146.672L493.882 159.698L500.937 140.16L507.993 151.557H515.591" stroke="#133CA7" stroke-width="3"/>
<path d="M268 87.4758C274.83 93.1388 289.03 107.863 291.187 121.454M337.562 117.737C343.853 89.4224 370.563 26.634 427.075 2M464.282 105.527C479.021 94.5545 523.491 70.4868 583.454 61.9923M506.882 204.806C522.7 199.851 564.149 191.427 603.405 197.373M337.562 270.107C345.47 263.913 373.798 246.429 423.84 226.042" stroke="#133CA7" stroke-width="3"/>
<path d="M162.275 473.63C177.653 469.469 207.43 453.549 203.523 423.156C212.387 424.604 230.333 426.63 231.202 423.156C232.287 418.815 223.604 331.435 153.592 313.525C156.124 329.626 155.437 367.364 132.425 389.507C129.893 380.281 119.834 365.193 99.8617 378.653C93.349 385.708 86.4021 401.773 110.716 409.588" stroke="#133CA7" stroke-width="3"/>
<path d="M134.596 315.664C105.47 319.825 52.6445 349.747 74.3536 436.149C101.49 544.152 239.885 533.84 282.218 462.743C297.957 436.511 329.978 383.505 332.149 381.334M0 601.138H200.266C234.639 600.053 321.729 584.097 332.149 528.955C342.569 473.814 320.752 436.149 260.509 401.415" stroke="#133CA7" stroke-width="3"/>
<rect x="201.266" y="173.416" width="65.2982" height="41.4182" stroke="#133CA7" stroke-width="2"/>
<circle cx="212.342" cy="183.342" r="3.34182" stroke="#133CA7" stroke-width="2"/>
<circle cx="217.769" cy="183.342" r="3.34182" stroke="#133CA7" stroke-width="2"/>
<rect x="212.206" y="202.809" width="14.1109" height="2.17091" fill="#133CA7"/>
<rect x="228.488" y="202.809" width="13.0255" height="2.17091" fill="#133CA7"/>
<rect x="242.599" y="202.809" width="14.1109" height="2.17091" fill="#133CA7"/>
<path d="M297.957 151.76V150.26H296.457V151.76H297.957ZM348.974 151.76H350.474V150.26H348.974V151.76ZM297.957 189.751H296.457V191.251H297.957V189.751ZM317.981 189.751L319.249 188.95L318.808 188.251H317.981V189.751ZM323.465 198.435L322.197 199.236L323.56 201.393L324.782 199.153L323.465 198.435ZM328.202 189.751V188.251H327.312L326.885 189.033L328.202 189.751ZM348.974 189.751V191.251H350.474V189.751H348.974ZM297.957 153.26H348.974V150.26H297.957V153.26ZM299.457 189.751V151.76H296.457V189.751H299.457ZM317.981 188.251H297.957V191.251H317.981V188.251ZM324.734 197.634L319.249 188.95L316.713 190.552L322.197 199.236L324.734 197.634ZM326.885 189.033L322.149 197.716L324.782 199.153L329.519 190.469L326.885 189.033ZM348.974 188.251H328.202V191.251H348.974V188.251ZM347.474 151.76V189.751H350.474V151.76H347.474Z" fill="#133CA7"/>
<rect x="306.641" y="163.7" width="33.6491" height="3.25636" fill="#133CA7"/>
<rect x="306.641" y="171.298" width="33.6491" height="3.25636" fill="#133CA7"/>
<rect x="573.5" y="123.5" width="36.0764" height="38.2473" stroke="#133CA7" stroke-width="3"/>
<mask id="path-19-inside-1" fill="white">
<path fill-rule="evenodd" clip-rule="evenodd" d="M599.799 133.307V113.226C599.799 108.683 596.116 105 591.573 105C587.029 105 583.346 108.683 583.346 113.226V133.307H582.346V113.226C582.346 108.131 586.477 104 591.573 104C596.668 104 600.799 108.131 600.799 113.226V133.307H599.799Z"/>
</mask>
<path fill-rule="evenodd" clip-rule="evenodd" d="M599.799 133.307V113.226C599.799 108.683 596.116 105 591.573 105C587.029 105 583.346 108.683 583.346 113.226V133.307H582.346V113.226C582.346 108.131 586.477 104 591.573 104C596.668 104 600.799 108.131 600.799 113.226V133.307H599.799Z" fill="#133CA7"/>
<path d="M599.799 133.307H594.799V138.307H599.799V133.307ZM583.346 133.307V138.307H588.346V133.307H583.346ZM582.346 133.307H577.346V138.307H582.346V133.307ZM600.799 133.307V138.307H605.799V133.307H600.799ZM604.799 133.307V113.226H594.799V133.307H604.799ZM604.799 113.226C604.799 105.922 598.877 100 591.573 100V110C593.355 110 594.799 111.444 594.799 113.226H604.799ZM591.573 100C584.268 100 578.346 105.922 578.346 113.226H588.346C588.346 111.444 589.791 110 591.573 110V100ZM578.346 113.226V133.307H588.346V113.226H578.346ZM582.346 138.307H583.346V128.307H582.346V138.307ZM577.346 113.226V133.307H587.346V113.226H577.346ZM591.573 99C583.716 99 577.346 105.369 577.346 113.226H587.346C587.346 110.892 589.239 109 591.573 109V99ZM605.799 113.226C605.799 105.369 599.43 99 591.573 99V109C593.907 109 595.799 110.892 595.799 113.226H605.799ZM605.799 133.307V113.226H595.799V133.307H605.799ZM599.799 138.307H600.799V128.307H599.799V138.307Z" fill="#133CA7" mask="url(#path-19-inside-1)"/>
<path d="M189.955 456.263C182.175 456.986 164.989 454.092 158.476 436.725" stroke="#133CA7" stroke-width="4"/>
<path d="M453.791 199.589C454.052 204.87 456.289 209.093 460.079 211.345C461.858 212.402 463.853 212.931 465.848 212.931C467.843 212.931 469.838 212.402 471.617 211.345C475.85 208.831 478.145 203.856 477.915 197.697C477.678 191.364 473.206 187.81 468.438 186.765C468.386 186.749 467.8 186.654 467.171 186.571C466.708 186.51 465.108 186.505 464.32 186.603C463.874 186.659 463.425 186.726 463.102 186.8C458.393 187.888 454.015 191.433 453.781 197.697C453.759 198.295 453.76 198.881 453.785 199.454C453.785 199.5 453.787 199.545 453.791 199.589ZM469.921 208.491C467.409 209.983 464.287 209.983 461.774 208.491C459.42 207.092 457.873 204.571 457.316 201.342C459.808 201.402 462.275 200.631 464.323 199.113C464.554 198.942 464.778 198.762 464.996 198.575C467.623 200.836 471.073 201.773 474.408 201.169C473.877 204.481 472.318 207.067 469.921 208.491ZM469.36 190.49C472.162 191.591 474.413 193.953 474.593 197.72C472.018 198.457 469.251 197.839 467.183 196.076C468.238 194.481 468.977 192.592 469.36 190.49ZM457.099 197.822C457.298 192.486 461.627 189.935 465.848 189.765C465.937 189.769 466.025 189.774 466.114 189.779C465.613 192.662 464.304 194.995 462.346 196.446C460.815 197.581 458.953 198.124 457.093 198.01C457.095 197.947 457.096 197.885 457.099 197.822ZM501.118 241.733C501.13 241.813 501.137 241.928 501.137 242.012C501.137 242.928 500.393 243.712 499.477 243.712H496.546C495.629 243.712 494.886 242.923 494.886 242.006C494.886 241.922 494.892 241.793 494.904 241.712C494.167 241.542 493.618 240.871 493.618 240.083C493.618 239.166 494.361 238.4 495.278 238.4H496.351L496.37 232.572L489.58 234.699V252.676H491.336C492.253 252.676 492.996 253.419 492.996 254.336C492.996 255.253 492.253 255.996 491.336 255.996H487.906C487.898 255.996 487.89 255.996 487.882 255.996C487.874 255.996 487.866 255.996 487.859 255.996H484.427C483.51 255.996 482.767 255.253 482.767 254.336C482.767 253.42 483.51 252.676 484.427 252.676H486.26V235.726L479.454 237.83V244.708H480.486C481.402 244.708 482.146 245.451 482.146 246.367C482.146 247.156 481.596 247.815 480.859 247.985C480.871 248.065 480.878 248.148 480.878 248.232C480.878 249.149 480.135 249.892 479.218 249.892L476.287 249.893C475.37 249.893 474.626 249.15 474.626 248.233C474.626 248.149 474.632 248.066 474.645 247.985C473.908 247.816 473.358 247.156 473.358 246.367C473.358 245.451 474.101 244.708 475.018 244.708H476.134V236.605C476.134 235.877 476.606 235.234 477.302 235.019L486.26 232.25V229.651C486.26 228.734 487.003 227.991 487.92 227.991C488.837 227.991 489.58 228.734 489.58 229.651V231.224L497.518 228.762C497.682 228.709 497.835 228.678 498.011 228.678C498.832 228.678 499.53 229.273 499.652 230.085C499.667 230.18 499.673 230.264 499.671 230.358L499.671 238.4H500.745C501.661 238.4 502.405 239.166 502.405 240.083C502.405 240.872 501.855 241.563 501.118 241.733ZM459.583 221.111L464.308 232.829C464.562 233.457 465.171 233.868 465.848 233.868C466.525 233.868 467.134 233.457 467.387 232.829L472.122 221.091C474.401 222.222 476.26 224.07 477.053 226.743C477.314 227.621 478.237 228.122 479.117 227.862C479.996 227.601 480.497 226.677 480.236 225.798C479.304 222.658 477.203 220.108 474.16 218.424C471.482 216.942 468.181 216.222 464.866 216.396C461.647 216.566 458.57 217.583 456.202 219.261C453.49 221.182 451.742 223.894 451.148 227.103L447.235 248.224C447.145 248.709 447.276 249.209 447.591 249.588C447.907 249.967 448.374 250.186 448.867 250.186L467.292 250.186C468.208 250.186 468.952 249.443 468.952 248.526C468.952 247.609 468.208 246.866 467.292 246.866L450.863 246.866L454.412 227.708C455.014 224.457 457.1 222.346 459.583 221.111ZM465.041 219.712C466.331 219.644 467.672 219.74 468.976 220.015L465.848 227.77L462.724 220.023C463.51 219.853 464.292 219.751 465.041 219.712Z" fill="#133CA7"/>
<g clip-path="url(#clip0)">
<path d="M345.729 295.168L345.728 295.165C345.39 293.907 344.565 292.835 343.436 292.185L343.435 292.184C342.305 291.531 340.962 291.354 339.701 291.693L345.729 295.168ZM345.729 295.168C346.087 296.45 345.909 297.82 345.238 298.968L345.237 298.97L344.36 300.497L344.187 300.797L344.485 300.973C345.149 301.364 345.374 302.216 344.991 302.883L340.605 310.479L340.43 310.783L340.734 310.958L342.26 311.835C343.389 312.485 344.214 313.557 344.553 314.816C344.892 316.077 344.715 317.42 344.062 318.55L344.062 318.55L337.044 330.709L337.043 330.711M345.729 295.168L337.043 330.711M305.66 358.43L309.748 353.255L324.153 339.78M305.66 358.43L305.387 358.211L309.474 353.038L309.616 352.858L309.837 352.916C310.26 353.026 310.696 353.082 311.133 353.08L311.137 353.08C312.893 353.094 314.523 352.169 315.412 350.655L315.413 350.653L317.168 347.723L317.181 347.701L317.198 347.68L323.864 339.58M305.66 358.43L305.386 358.213L305.386 358.212C304.682 359.09 303.566 359.528 302.454 359.363C301.341 359.197 300.401 358.452 299.985 357.407M305.66 358.43C304.879 359.406 303.638 359.893 302.402 359.709C301.166 359.525 300.122 358.696 299.66 357.535M323.864 339.58L323.85 339.605L324.153 339.78M323.864 339.58L323.883 339.557L324.153 339.78M323.864 339.58L338.921 313.445L339.095 313.142L339.398 313.316L340.925 314.193C341.412 314.472 341.768 314.933 341.913 315.476M324.153 339.78L334.475 330.339C334.39 329.965 334.462 329.573 334.674 329.253L334.68 329.244L334.685 329.235L341.703 317.076C341.703 317.076 341.703 317.076 341.703 317.075C341.982 316.592 342.059 316.016 341.913 315.476M341.913 315.476C341.913 315.476 341.913 315.476 341.913 315.476L341.575 315.567L341.913 315.477C341.913 315.477 341.913 315.477 341.913 315.476ZM299.66 357.535L299.985 357.407M299.66 357.535L299.985 357.406M299.66 357.535L298.733 355.189L298.871 354.962L298.572 354.78L298.246 354.909L298.344 355.156L297.923 355.851C297.14 357.159 295.603 357.814 294.118 357.469C292.632 357.125 291.54 355.861 291.413 354.342L290.875 348.101L291.131 347.329L290.799 347.219L290.45 347.249L290.52 348.059L286.501 360.167M299.985 357.407C299.985 357.407 299.985 357.406 299.985 357.406M299.985 357.407L299.985 357.406M299.985 357.406L298.897 354.652L298.638 353.996L298.273 354.599L297.623 355.67L297.622 355.672C296.918 356.849 295.534 357.439 294.197 357.129C292.86 356.818 291.876 355.681 291.762 354.313L291.762 354.312L291.148 347.189L290.467 347.109L286.17 360.055L286.501 360.167M286.501 360.167L286.169 360.057L286.169 360.056C285.976 360.624 285.444 361.007 284.846 361.01M286.501 360.167C286.259 360.882 285.588 361.362 284.834 361.36M284.834 361.36L284.856 361.01C284.853 361.01 284.849 361.01 284.846 361.01M284.834 361.36L284.835 361.01C284.839 361.01 284.842 361.01 284.846 361.01M284.834 361.36C284.645 361.348 284.461 361.3 284.29 361.22C283.377 360.912 282.883 359.925 283.185 359.009M284.846 361.01C284.706 361 284.567 360.963 284.438 360.903L284.42 360.895L284.402 360.889C283.671 360.642 283.276 359.852 283.517 359.119L283.517 359.12L283.185 359.009M283.185 359.009L283.517 359.118L287.833 346.172L287.501 346.061M283.185 359.009L287.501 346.061M287.501 346.061C288.029 344.481 289.595 343.49 291.25 343.689M287.501 346.061L287.833 346.172M287.833 346.172C288.309 344.749 289.719 343.857 291.208 344.037M287.833 346.172L336.72 293.985L335.843 295.512L335.668 295.815L335.365 295.641C334.698 295.258 333.845 295.483 333.455 296.147L328.999 303.743L328.823 304.042L328.523 303.869L326.996 302.992L326.995 302.992C326.671 302.804 326.286 302.754 325.925 302.851C325.564 302.949 325.257 303.186 325.071 303.511C324.69 304.183 324.922 305.035 325.59 305.421C325.59 305.421 325.59 305.421 325.591 305.421L327.117 306.298L327.421 306.473L327.246 306.776L312.347 332.595L308.672 342.411L308.664 342.433L308.653 342.454L306.898 345.734L306.893 345.744L306.893 345.744C305.934 347.412 306.037 349.486 307.156 351.051L307.311 351.268L307.142 351.475L303.194 356.317L302.818 356.779L302.598 356.226L301.493 353.456L301.818 353.325M287.833 346.172L294.871 353.301M291.208 344.037C292.696 344.218 293.854 345.419 293.977 346.914L293.977 346.915L294.574 353.933L294.667 355.025L295.224 354.081L295.854 353.013L295.554 352.833M291.208 344.037L291.25 343.689M291.208 344.037C291.208 344.037 291.208 344.037 291.208 344.037L291.25 343.689M295.554 352.833L295.855 353.011L295.855 353.012C296.471 351.985 297.616 351.394 298.811 351.488L298.811 351.488C300.005 351.582 301.044 352.343 301.493 353.455L301.493 353.454L301.818 353.325M295.554 352.833L295.229 353.383L295.271 353.873L294.922 353.903L294.621 353.725L294.871 353.301M295.554 352.833L294.871 353.301M301.818 353.325L302.775 355.724L301.818 353.325ZM294.871 353.301L294.326 346.885C294.189 345.225 292.903 343.89 291.25 343.689M337.043 330.711C336.857 331.036 336.55 331.273 336.188 331.372C335.828 331.469 335.444 331.418 335.121 331.231M337.043 330.711L335.121 331.231M340.439 294.401L340.439 294.401C340.975 294.269 341.542 294.343 342.025 294.61L342.029 294.613L342.029 294.613C342.518 294.891 342.873 295.354 343.019 295.896L343.021 295.903L343.021 295.903C343.153 296.439 343.079 297.006 342.811 297.489L342.809 297.494L342.809 297.494L341.931 299.021L341.757 299.324L341.454 299.15L338.4 297.395L338.097 297.221L338.271 296.918L339.148 295.392L340.439 294.401ZM340.439 294.401L340.433 294.403M340.439 294.401L340.433 294.403M340.433 294.403C339.889 294.548 339.427 294.904 339.148 295.391L340.433 294.403ZM335.121 331.231C334.793 331.035 334.56 330.712 334.475 330.339L335.121 331.231ZM315.362 344.855L315.619 345.004L315.808 344.775L320.352 339.283L320.616 338.964L320.257 338.757L314.73 335.564L314.372 335.357L314.228 335.744L311.736 342.411L311.633 342.688L311.888 342.836L314.485 344.346L314.485 344.346L315.362 344.855ZM309.445 347.149L309.443 347.152C308.912 348.097 309.185 349.289 310.074 349.909C310.558 350.248 311.161 350.367 311.737 350.24L311.738 350.24C312.314 350.111 312.809 349.748 313.104 349.236C313.104 349.236 313.104 349.236 313.104 349.236L313.981 347.728L314.158 347.424L313.853 347.249L310.8 345.494L310.497 345.32L310.322 345.623L309.445 347.149ZM321.907 336.486L322.21 336.661L322.385 336.358L336.422 312.04L336.596 311.737L336.294 311.562L330.223 308.053L329.92 307.878L329.745 308.181L315.709 332.499L315.534 332.802L315.837 332.977L321.907 336.486ZM337.698 309.133L338.001 309.308L338.176 309.005L341.685 302.934L341.86 302.631L341.557 302.456L335.487 298.947L335.184 298.772L335.008 299.075L331.499 305.145L331.324 305.448L331.627 305.624L337.698 309.133ZM336.72 293.985C337.37 292.856 338.442 292.032 339.701 291.693L336.72 293.985Z" fill="#133CA7" stroke="#F1F7FF" stroke-width="0.7"/>
<path d="M262.199 355.186L262.446 355.434L262.694 355.187L268.894 349.003C269.452 348.534 270.276 348.569 270.792 349.085L271.033 348.844L270.792 349.085C271.307 349.6 271.342 350.424 270.873 350.982L264.691 357.182C264.691 357.182 264.691 357.182 264.691 357.182C264.095 357.773 263.287 358.103 262.449 358.098L262.446 358.098C261.612 358.099 260.812 357.77 260.219 357.182C260.219 357.182 260.219 357.182 260.219 357.182L256.5 353.463L256.5 353.463L256.499 353.462C256.233 353.199 256.084 352.839 256.084 352.465C256.084 352.09 256.233 351.732 256.499 351.468L256.499 351.467C257.047 350.923 257.932 350.923 258.48 351.467C258.48 351.467 258.48 351.467 258.48 351.467L262.199 355.186Z" fill="#133CA7" stroke="#F1F7FF" stroke-width="0.7"/>
<path d="M271.921 343.78L271.921 343.78C271.456 344.401 270.576 344.527 269.955 344.062C267.924 342.529 265.447 341.703 262.902 341.71C256.41 341.71 251.148 346.973 251.148 353.464C251.148 359.956 256.411 365.219 262.902 365.219C269.394 365.219 274.657 359.956 274.657 353.464C274.657 352.689 275.286 352.06 276.061 352.06C276.837 352.06 277.466 352.689 277.466 353.464C277.466 361.508 270.945 368.028 262.902 368.028C254.859 368.028 248.339 361.508 248.339 353.464C248.339 347.949 251.455 342.906 256.389 340.439C261.323 337.972 267.228 338.505 271.641 341.814C272.261 342.28 272.387 343.159 271.921 343.78Z" fill="#133CA7" stroke="#F1F7FF" stroke-width="0.7"/>
<path d="M259.921 287.67V288.02H260.271H304.134C304.909 288.02 305.538 288.649 305.538 289.424C305.538 290.201 304.909 290.829 304.134 290.829H258.516C257.74 290.829 257.112 290.201 257.112 289.424V282.406C257.112 281.631 257.74 281.002 258.516 281.002H304.134C304.909 281.002 305.538 281.631 305.538 282.406C305.538 283.183 304.909 283.811 304.134 283.811H260.271H259.921V284.161V287.67Z" fill="#133CA7" stroke="#F1F7FF" stroke-width="0.7"/>
<path d="M262.375 296.443C262.375 295.667 263.004 295.038 263.78 295.038H298.87C299.646 295.038 300.275 295.667 300.275 296.443C300.275 297.219 299.646 297.847 298.87 297.847H263.78C263.004 297.847 262.375 297.219 262.375 296.443Z" fill="#133CA7" stroke="#F1F7FF" stroke-width="0.7"/>
<path d="M270.798 307.32H309.397C310.173 307.32 310.802 307.949 310.802 308.724C310.802 309.501 310.173 310.129 309.397 310.129H270.798C270.022 310.129 269.393 309.501 269.393 308.724C269.393 307.949 270.022 307.32 270.798 307.32Z" fill="#133CA7" stroke="#F1F7FF" stroke-width="0.7"/>
<path d="M290.097 317.847C290.873 317.847 291.502 318.476 291.502 319.251C291.502 320.028 290.873 320.656 290.097 320.656H255.007C254.231 320.656 253.603 320.028 253.603 319.251C253.603 318.476 254.231 317.847 255.007 317.847H290.097Z" fill="#133CA7" stroke="#F1F7FF" stroke-width="0.7"/>
<path d="M297.116 317.847H309.397C310.173 317.847 310.802 318.476 310.802 319.251C310.802 320.028 310.173 320.656 309.397 320.656H297.116C296.34 320.656 295.711 320.028 295.711 319.251C295.711 318.476 296.34 317.847 297.116 317.847Z" fill="#133CA7" stroke="#F1F7FF" stroke-width="0.7"/>
<path d="M273.957 328.024C273.957 328.8 273.328 329.428 272.552 329.428H255.007C254.231 329.428 253.603 328.8 253.603 328.024C253.603 327.248 254.231 326.619 255.007 326.619H272.552C273.328 326.619 273.957 327.248 273.957 328.024Z" fill="#133CA7" stroke="#F1F7FF" stroke-width="0.7"/>
<path d="M291.852 329.428H279.57C278.795 329.428 278.166 328.8 278.166 328.024C278.166 327.248 278.795 326.619 279.57 326.619H291.852C292.628 326.619 293.256 327.248 293.256 328.024C293.256 328.8 292.628 329.428 291.852 329.428Z" fill="#133CA7" stroke="#F1F7FF" stroke-width="0.7"/>
<path d="M318.52 352.586C318.52 351.81 319.149 351.181 319.924 351.181C320.7 351.181 321.329 351.81 321.329 352.586V370.131C321.329 372.845 319.129 375.045 316.415 375.045H246.234C243.521 375.045 241.321 372.845 241.321 370.131V275.387C241.321 272.674 243.521 270.473 246.234 270.473H316.415C319.129 270.473 321.329 272.674 321.329 275.387V308.337C321.329 309.113 320.7 309.742 319.924 309.742C319.149 309.742 318.52 309.113 318.52 308.337V275.387C318.52 274.225 317.577 273.283 316.415 273.283H246.234C245.072 273.283 244.13 274.225 244.13 275.387V370.131C244.13 371.294 245.072 372.236 246.234 372.236H316.415C317.577 372.236 318.52 371.294 318.52 370.131V352.586Z" fill="#133CA7" stroke="#F1F7FF" stroke-width="0.7"/>
</g>
<defs>
<clipPath id="clip0">
<rect width="105.289" height="105.289" fill="white" transform="translate(240.971 270.107)"/>
</clipPath>
</defs>
</svg>
