<svg width="366" height="528" viewBox="0 0 366 528" fill="none" xmlns="http://www.w3.org/2000/svg">
<path d="M91 98.1418V45H364V268" stroke="#133CA7" stroke-width="3"/>
<path d="M-35.3193 2.09714H-58.566C-75.1723 1.4414 -270 0.226761 -270 140.959C-270 304.344 -24.2537 279.992 5.93533 281.959V95.8683L11.7565 99.147L17.5777 95.8683L23.1282 99.147L29.0845 95.8683L35.718 99.147L43.1638 95.8683L50.6094 99.147L57.5136 95.8683L64.1472 99.147L73.4883 95.8683L82.8197 99.147L91.8393 95.8683L101.792 99.147L112.989 95.8683L121.386 99.147L127.607 95.8683L136.315 99.147L145.335 95.8683L152.799 99.147L162.13 95.8683L170.839 99.147L180.169 95.8683L189.5 99.147V394.959" stroke="#133CA7" stroke-width="3"/>
<path d="M217.394 514.831C216.771 514.83 216.166 514.62 215.677 514.233C198.98 501.014 180.766 485.469 175.782 468.14C173.997 460.705 178.578 453.231 186.013 451.446C192.982 449.774 200.075 453.695 202.364 460.487C205.31 470.726 225.313 486.559 232.823 492.518C234.051 493.43 234.308 495.164 233.396 496.392C232.485 497.62 230.751 497.877 229.523 496.965C229.477 496.932 229.433 496.896 229.389 496.86C215.085 485.541 200.038 472.543 197.02 462.015C195.752 457.605 191.149 455.057 186.739 456.325C182.328 457.593 179.781 462.196 181.048 466.606C185.579 482.356 203.051 497.203 219.072 509.885C220.271 510.835 220.474 512.576 219.524 513.775C218.998 514.439 218.197 514.826 217.35 514.825L217.394 514.831Z" fill="#133CA7"/>
<path d="M146.984 500.814C145.455 500.811 144.217 499.569 144.22 498.04C144.222 496.833 145.007 495.766 146.159 495.404C149.255 494.434 159.002 490.054 154.466 474.265C148.971 455.159 160.004 435.216 179.11 429.72C179.119 429.718 179.129 429.715 179.138 429.712C197.831 424.462 217.338 434.889 223.359 453.348C224.738 454.644 234.191 462.453 240.659 467.703C241.816 468.702 241.944 470.451 240.945 471.608C239.988 472.716 238.334 472.888 237.17 472C219.366 457.552 218.773 456.55 218.485 456.073C218.371 455.882 218.28 455.677 218.214 455.464C213.301 439.603 196.645 430.544 180.661 435.04C164.493 439.685 155.152 456.558 159.798 472.725C159.798 472.727 159.799 472.729 159.799 472.731C164.518 489.129 156.299 498.04 147.826 500.687C147.554 500.773 147.27 500.816 146.984 500.814Z" fill="#133CA7"/>
<path d="M155.845 511.386C154.316 511.383 153.078 510.141 153.081 508.612C153.083 507.404 153.868 506.338 155.02 505.975C166.495 502.387 170.67 496.494 165.077 471.031C161.669 457.879 169.203 444.372 182.184 440.362C195.406 436.599 209.184 444.223 213.019 457.424C213.789 460.099 217.305 465.255 237.857 481.525C239.085 482.437 239.342 484.171 238.43 485.399C237.519 486.627 235.785 486.884 234.557 485.972C234.511 485.939 234.467 485.903 234.423 485.867C211.717 467.913 208.777 462.724 207.697 458.958C204.729 448.673 193.999 442.729 183.706 445.667C173.54 448.894 167.715 459.551 170.487 469.851C176.186 495.813 172.702 506.264 156.642 511.27C156.384 511.348 156.115 511.387 155.845 511.386Z" fill="#133CA7"/>
<path d="M225.07 505.848C224.335 505.849 223.629 505.559 223.109 505.04C221.25 503.39 219.31 501.836 217.294 500.382C207.376 492.856 190.773 480.263 186.409 465.078C185.962 463.615 186.784 462.067 188.246 461.619C189.709 461.172 191.257 461.994 191.705 463.456C191.714 463.487 191.723 463.518 191.731 463.549C195.607 476.962 211.269 488.857 220.639 495.968C222.862 497.566 224.994 499.287 227.024 501.124C228.104 502.207 228.101 503.96 227.018 505.04C226.501 505.556 225.8 505.847 225.07 505.848Z" fill="#133CA7"/>
<path d="M183.535 528H183.358C181.831 527.905 180.671 526.591 180.766 525.065C180.965 521.858 182.427 505.854 191.842 505.854C197.712 506.536 202.88 510.04 205.687 515.241C206.291 516.118 206.953 516.955 207.669 517.744C208.732 518.844 208.701 520.597 207.601 521.659C206.528 522.696 204.827 522.696 203.754 521.659C202.839 520.676 201.993 519.63 201.223 518.53C198.864 515.34 195.951 511.386 191.842 511.386C188.84 511.386 186.653 519.693 186.304 525.403C186.213 526.865 184.999 528.003 183.535 528Z" fill="#133CA7"/>
<path d="M166.921 522.462C165.392 522.465 164.149 521.228 164.147 519.698C164.144 518.494 164.921 517.426 166.068 517.057C173.068 514.781 177.698 500.249 175.361 492.845C174.813 491.417 175.527 489.816 176.955 489.269C178.383 488.721 179.984 489.435 180.532 490.863C180.572 490.968 180.606 491.075 180.633 491.184C183.573 500.382 178.418 518.874 167.774 522.352C167.497 522.433 167.209 522.47 166.921 522.462Z" fill="#133CA7"/>
<path d="M144.769 467.082C143.24 467.082 142 465.843 142 464.313C142.031 438.328 163.088 417.271 189.073 417.241C214.625 417.241 223.768 431.999 230.441 442.776C233.593 447.855 236.312 452.246 239.773 453.37C241.232 453.827 242.045 455.381 241.589 456.84C241.132 458.3 239.578 459.112 238.119 458.656C238.1 458.65 238.081 458.644 238.062 458.637C232.668 456.887 229.456 451.698 225.734 445.689C219.41 435.483 211.54 422.779 189.073 422.779C166.144 422.803 147.562 441.385 147.538 464.314C147.538 465.843 146.298 467.082 144.769 467.082Z" fill="#133CA7"/>
<path d="M147.538 486.465C146.488 486.467 145.527 485.875 145.057 484.937C143.477 481.962 142.442 478.729 142 475.389C142 473.86 143.24 472.62 144.769 472.62C146.298 472.62 147.538 473.86 147.538 475.389C147.998 477.857 148.833 480.24 150.014 482.456C150.699 483.823 150.146 485.487 148.778 486.172C148.393 486.365 147.969 486.465 147.538 486.465Z" fill="#133CA7"/>
<path d="M227.839 428.316C226.869 428.317 225.97 427.811 225.468 426.982C222.744 422.485 207.592 411.703 186.304 411.703C164.152 411.703 152.312 423.017 149.903 426.982C149.157 428.317 147.47 428.794 146.135 428.048C144.8 427.302 144.323 425.615 145.069 424.28C145.102 424.221 145.137 424.164 145.173 424.108C148.203 419.118 161.5 406.165 186.304 406.165C209.63 406.165 226.405 417.85 230.204 424.113C230.996 425.421 230.577 427.124 229.269 427.916C228.838 428.177 228.343 428.316 227.839 428.316Z" fill="#133CA7"/>
<path d="M216.763 406.165C216.456 406.165 216.151 406.115 215.86 406.015C214.752 405.633 213.678 405.234 212.62 404.847C204.251 401.574 195.277 400.135 186.304 400.627C173.013 400.627 170.017 402.161 165.88 404.282C164.861 404.808 163.781 405.356 162.518 405.943C161.118 406.563 159.48 405.929 158.861 404.528C158.241 403.127 158.875 401.49 160.276 400.87C161.444 400.344 162.435 399.835 163.377 399.353C167.996 396.972 171.667 395.089 186.304 395.089C195.935 394.597 205.561 396.153 214.548 399.652C215.567 400.029 216.586 400.411 217.66 400.76C219.116 401.227 219.918 402.786 219.45 404.242C219.077 405.406 217.985 406.187 216.763 406.165Z" fill="#133CA7"/>
<path d="M238.914 444.93C237.71 444.93 236.645 444.151 236.278 443.003C234.84 439.365 233.079 435.862 231.017 432.536C230.216 431.233 230.622 429.528 231.925 428.726C233.228 427.925 234.934 428.331 235.735 429.635C238.034 433.34 239.981 437.252 241.55 441.32C242.015 442.777 241.211 444.335 239.754 444.799C239.483 444.886 239.199 444.93 238.914 444.93Z" fill="#133CA7"/>
</svg>
