<svg width="598" height="178" viewBox="0 0 598 178" fill="none" xmlns="http://www.w3.org/2000/svg">
<path d="M109 173H0" stroke="#133CA7" stroke-width="3"/>
<path d="M596.353 142.588C596.853 129.088 596.353 96.5883 590.353 74.5883C589.353 73.4217 588.254 68.8883 591.854 60.0883C596.353 49.0883 601.354 28.5883 574.854 25.5883C548.354 22.5883 553.854 54.0883 556.354 58.5883C558.854 63.0883 563.354 76.5883 560.854 84.5883C558.354 92.5883 552.354 111.088 553.854 119.088C555.054 125.488 554.354 135.422 553.854 139.588H542.354C542.52 135.588 541.854 126.188 537.854 120.588C532.854 113.588 534.854 99.0883 537.854 95.5883C540.854 92.0883 552.354 64.0883 523.854 60.0883C495.354 56.0883 497.854 87.0883 501.354 95.5883C504.854 104.088 504.354 115.588 501.354 120.588C498.354 125.588 494.354 140.088 497.854 150.588C500.654 158.988 501.354 170.755 501.354 175.588H482.854C483.354 162.255 483.854 134.688 481.854 131.088C479.354 126.588 475.354 117.088 481.854 104.588C488.354 92.0883 490.854 66.5883 470.854 61.5883C467.595 60.7737 464.588 60.543 461.854 60.7948M107.5 172.588H441.854C435.354 153.588 444.854 131.088 449.854 117.088C454.854 103.088 447.354 104.588 443.854 89.0883C440.924 76.1138 447.804 62.0883 461.854 60.7948M506.854 61.5883C505.02 60.0883 501.554 55.6883 502.354 50.0883C503.354 43.0883 514.354 39.0883 512.854 23.5883C511.354 8.08834 501.354 0.588337 488.854 1.58834C476.354 2.58834 466.854 14.0884 470.854 29.5884C474.854 45.0884 480.854 43.5884 476.854 54.5884C472.854 65.5884 465.354 81.0884 466.354 106.088C467.154 126.088 466.687 145.422 466.354 152.588H419.854C419.02 138.755 418.854 109.088 424.854 101.088C432.354 91.0884 432.854 79.0883 427.354 74.5883C421.854 70.0884 416.854 36.5884 443.854 39.5884C449.854 41.0593 461.854 47.36 461.854 60.7948" stroke="#00B2FF" stroke-width="3"/>
</svg>
