<svg width="623" height="133" viewBox="0 0 623 133" fill="none" xmlns="http://www.w3.org/2000/svg">
<path d="M598.394 119.831C597.771 119.83 597.166 119.62 596.677 119.233C579.98 106.014 561.766 90.4686 556.782 73.1403C554.997 65.705 559.578 58.2311 567.013 56.4464C573.982 54.7738 581.075 58.6955 583.364 65.4867C586.31 75.7263 606.313 91.5594 613.823 97.5184C615.051 98.4298 615.308 100.164 614.396 101.392C613.485 102.62 611.751 102.877 610.523 101.965C610.477 101.932 610.433 101.896 610.389 101.86C596.085 90.5405 581.038 77.5427 578.02 67.0152C576.752 62.6047 572.149 60.0571 567.739 61.3249C563.328 62.5928 560.781 67.1959 562.048 71.6061C566.579 87.3561 584.051 102.203 600.072 114.885C601.271 115.835 601.474 117.576 600.524 118.775C599.998 119.439 599.197 119.826 598.35 119.825L598.394 119.831Z" fill="#133CA7"/>
<path d="M527.984 105.814C526.455 105.811 525.217 104.569 525.22 103.04C525.222 101.833 526.007 100.766 527.159 100.404C530.255 99.4345 540.002 95.0538 535.466 79.2651C529.971 60.1594 541.004 40.2159 560.11 34.7203C560.119 34.7178 560.128 34.7149 560.138 34.7123C578.831 29.4618 598.338 39.8886 604.359 58.3485C605.738 59.6444 615.191 67.4529 621.659 72.7029C622.816 73.7023 622.944 75.4509 621.945 76.6085C620.988 77.7164 619.334 77.888 618.17 77.0005C600.366 62.5518 599.773 61.5495 599.485 61.0732C599.371 60.8816 599.279 60.677 599.214 60.4639C594.301 44.6025 577.645 35.5438 561.661 40.0399C545.493 44.6853 536.152 61.5578 540.798 77.7255C540.798 77.7273 540.799 77.7294 540.799 77.7312C545.518 94.1292 537.299 103.04 528.826 105.687C528.554 105.773 528.27 105.816 527.984 105.814Z" fill="#133CA7"/>
<path d="M536.845 116.386C535.316 116.383 534.078 115.141 534.081 113.612C534.083 112.404 534.868 111.338 536.02 110.975C547.495 107.387 551.67 101.494 546.077 76.0309C542.669 62.8791 550.203 49.372 563.184 45.3616C576.406 41.5985 590.184 49.2227 594.019 62.4241C594.789 65.0989 598.305 70.2547 618.857 86.5254C620.085 87.4368 620.342 89.1712 619.43 90.3991C618.519 91.6272 616.785 91.8839 615.557 90.9725C615.511 90.9387 615.467 90.9034 615.423 90.8671C592.717 72.9129 589.777 67.7239 588.697 63.958C585.729 53.6735 574.999 47.729 564.706 50.6669C554.54 53.8941 548.715 64.5514 551.487 74.8513C557.186 100.813 553.702 111.264 537.642 116.27C537.384 116.348 537.115 116.387 536.845 116.386Z" fill="#133CA7"/>
<path d="M606.07 110.848C605.335 110.849 604.629 110.559 604.109 110.04C602.25 108.39 600.31 106.836 598.294 105.382C588.376 97.8561 571.773 85.2627 567.409 70.0776C566.961 68.6153 567.784 67.0671 569.246 66.6193C570.708 66.1718 572.257 66.9941 572.704 68.4564C572.714 68.4871 572.723 68.518 572.731 68.5488C576.607 81.9617 592.269 93.8573 601.639 100.968C603.862 102.566 605.994 104.287 608.024 106.124C609.104 107.207 609.101 108.96 608.018 110.04C607.501 110.556 606.8 110.847 606.07 110.848Z" fill="#133CA7"/>
<path d="M564.535 133H564.358C562.831 132.905 561.671 131.591 561.766 130.065C561.965 126.858 563.427 110.854 572.842 110.854C578.712 111.536 583.88 115.04 586.687 120.241C587.291 121.118 587.953 121.955 588.669 122.744C589.732 123.844 589.701 125.597 588.601 126.659C587.528 127.696 585.827 127.696 584.754 126.659C583.839 125.676 582.993 124.63 582.223 123.53C579.864 120.34 576.951 116.386 572.842 116.386C569.84 116.386 567.653 124.693 567.304 130.403C567.213 131.865 565.999 133.003 564.535 133Z" fill="#133CA7"/>
<path d="M547.921 127.462C546.392 127.465 545.149 126.228 545.147 124.698C545.144 123.494 545.921 122.426 547.068 122.057C554.068 119.781 558.698 105.249 556.361 97.8452C555.813 96.4172 556.527 94.816 557.955 94.2685C559.383 93.7211 560.984 94.4349 561.532 95.8627C561.572 95.9676 561.606 96.0748 561.633 96.1838C564.574 105.382 559.418 123.874 548.774 127.352C548.497 127.433 548.209 127.47 547.921 127.462Z" fill="#133CA7"/>
<path d="M525.769 72.0824C524.24 72.0824 523 70.8426 523 69.3134C523.031 43.3284 544.088 22.271 570.073 22.2407C595.625 22.2407 604.768 36.9993 611.441 47.7763C614.593 52.8547 617.312 57.2462 620.773 58.3705C622.232 58.8274 623.045 60.3808 622.589 61.8402C622.132 63.2996 620.578 64.1124 619.119 63.6558C619.1 63.6498 619.081 63.6436 619.062 63.6371C613.668 61.8872 610.456 56.6979 606.734 50.6894C600.41 40.483 592.54 27.7788 570.073 27.7788C547.144 27.8032 528.562 46.3846 528.538 69.3136C528.538 70.8426 527.298 72.0824 525.769 72.0824Z" fill="#133CA7"/>
<path d="M528.538 91.4652C527.488 91.4673 526.527 90.8754 526.057 89.9367C524.477 86.962 523.442 83.7285 523 80.3891C523 78.8599 524.24 77.6201 525.769 77.6201C527.298 77.6201 528.538 78.8599 528.538 80.3891C528.998 82.8571 529.833 85.2401 531.014 87.4555C531.699 88.8228 531.146 90.4865 529.778 91.1716C529.393 91.3647 528.969 91.4652 528.538 91.4652Z" fill="#133CA7"/>
<path d="M608.839 33.3164C607.869 33.3169 606.97 32.8107 606.468 31.9819C603.744 27.4849 588.592 16.7025 567.304 16.7025C545.152 16.7025 533.312 28.0166 530.903 31.9819C530.157 33.3167 528.47 33.7941 527.135 33.0478C525.8 32.3017 525.323 30.6146 526.069 29.2798C526.102 29.2211 526.137 29.1637 526.174 29.1077C529.203 24.118 542.5 11.1646 567.304 11.1646C590.63 11.1646 607.405 22.8497 611.204 29.1131C611.996 30.4212 611.577 32.1239 610.269 32.9159C609.838 33.1773 609.343 33.3159 608.839 33.3164Z" fill="#133CA7"/>
<path d="M597.763 11.1646C597.456 11.1651 597.151 11.1148 596.86 11.0151C595.752 10.633 594.678 10.2342 593.62 9.84667C585.251 6.57425 576.277 5.13507 567.304 5.62674C554.013 5.62674 551.017 7.16067 546.88 9.2818C545.861 9.808 544.781 10.3563 543.518 10.9432C542.118 11.5626 540.48 10.9292 539.861 9.52815C539.241 8.12739 539.875 6.48962 541.276 5.87023C542.444 5.34404 543.435 4.83472 544.377 4.35292C548.996 1.97167 552.667 0.0885882 567.304 0.0885882C576.935 -0.402561 586.561 1.15266 595.548 4.65197C596.567 5.02864 597.586 5.41076 598.66 5.75965C600.116 6.22692 600.918 7.78629 600.451 9.24234C600.077 10.4058 598.985 11.1872 597.763 11.1646Z" fill="#133CA7"/>
<path d="M619.914 49.9304C618.71 49.9296 617.645 49.1505 617.278 48.0031C615.84 44.3647 614.079 40.8618 612.017 37.5364C611.216 36.2335 611.622 34.5277 612.925 33.7263C614.228 32.925 615.934 33.3315 616.736 34.6346C619.034 38.3398 620.981 42.2519 622.55 46.3197C623.015 47.7765 622.211 49.3346 620.754 49.7993C620.483 49.886 620.2 49.9304 619.914 49.9304Z" fill="#133CA7"/>
<path d="M0 78H512" stroke="#133CA7" stroke-width="3"/>
</svg>
