<svg width="516" height="321" viewBox="0 0 516 321" fill="none" xmlns="http://www.w3.org/2000/svg">
<path d="M351.32 124.977C356.297 125.709 366.867 124.099 369.326 111.802" stroke="#133CA7" stroke-width="2"/>
<path d="M515.573 161.869C495.664 164.65 455.493 155.457 454.088 96.4307C452.331 22.6482 421.149 1.56751 383.819 2.00669M407.535 68.3231C415.001 65.3952 426.771 56.4652 414.123 44.1681C401.474 31.871 386.6 48.4135 380.745 58.2219C370.204 47.3888 353.076 20.9794 368.887 2.00669C355.126 4.20258 322.685 24.6684 303.01 88.9646H330.239V124.099C330.239 132.444 331.732 150.099 353.515 150.45C380.745 150.889 428.176 144.301 433.447 187.78C436.082 199.492 424.663 222.827 357.907 222.476C341.365 222.622 308.455 234.685 309.158 281.765V312.069C288.663 313.826 244.159 301.792 230.105 239.604C228.934 225.55 225.099 196.037 219.126 190.416C211.66 183.389 206.39 159.673 219.126 161.869C222.786 163.04 230.105 167.315 230.105 175.044C230.105 182.774 242.11 188.512 248.112 190.416C256.017 195.686 269.456 214.746 259.97 248.827C248.112 291.427 166.863 355.109 72 295.38M263.106 222.476C269.547 217.938 294.05 184.618 286.321 171.97C281.929 160.698 271.213 136.748 263.483 131.126M196.288 82.3769V102.579L226.592 119.268V138.592L248.112 150.45C250.893 151.475 257.159 152.031 259.97 146.058C262.781 140.085 263.483 116.34 263.483 105.214C262.458 101.262 258.406 95.2096 250.308 91.1605C242.402 87.2079 233.619 83.6944 230.105 82.3769V99.505L196.288 82.3769Z" stroke="#133CA7" stroke-width="2"/>
<path d="M48.9249 311.761C48.5204 311.76 48.1279 311.624 47.8109 311.373C36.9758 302.794 25.1562 292.707 21.9218 281.462C20.7637 276.637 23.7363 271.787 28.5612 270.629C33.0833 269.544 37.6862 272.089 39.1717 276.496C41.0835 283.14 54.0639 293.415 58.937 297.282C59.734 297.873 59.9006 298.999 59.3091 299.795C58.7177 300.592 57.5922 300.759 56.7954 300.168C56.766 300.146 56.737 300.123 56.7089 300.099C47.4263 292.754 37.6621 284.319 35.7037 277.488C34.8809 274.626 31.8939 272.972 29.032 273.795C26.1699 274.618 24.5167 277.605 25.3395 280.467C28.2792 290.687 39.6172 300.322 50.0139 308.552C50.792 309.168 50.9233 310.298 50.3072 311.076C49.9659 311.507 49.4461 311.758 48.8962 311.757L48.9249 311.761Z" fill="#133CA7"/>
<path d="M3.23452 302.665C2.24215 302.663 1.43913 301.857 1.44098 300.865C1.44233 300.081 1.95157 299.389 2.69917 299.154C4.708 298.525 11.033 295.682 8.08974 285.437C4.52354 273.039 11.6832 260.097 24.0814 256.531C24.0874 256.529 24.0937 256.527 24.0997 256.525C36.2302 253.118 48.8889 259.884 52.7956 271.863C53.6904 272.704 59.8249 277.772 64.0223 281.178C64.7733 281.827 64.8563 282.962 64.2078 283.713C63.5868 284.432 62.5136 284.543 61.7582 283.967C50.2044 274.591 49.82 273.941 49.633 273.632C49.5587 273.507 49.4996 273.375 49.457 273.236C46.2691 262.943 35.4607 257.065 25.0881 259.983C14.5963 262.997 8.53497 273.946 11.5495 284.438C11.5498 284.439 11.5502 284.44 11.5505 284.441C14.6123 295.082 9.27921 300.865 3.78083 302.582C3.60412 302.638 3.41983 302.666 3.23452 302.665Z" fill="#133CA7"/>
<path d="M8.98422 309.526C7.99185 309.524 7.18882 308.718 7.19068 307.725C7.19202 306.942 7.70127 306.249 8.44887 306.014C15.8951 303.686 18.6047 299.862 14.975 283.338C12.7635 274.804 17.6526 266.039 26.076 263.436C34.6561 260.994 43.5972 265.942 46.0858 274.508C46.5853 276.244 48.8673 279.59 62.2036 290.148C63.0006 290.74 63.1672 291.865 62.5757 292.662C61.9843 293.459 60.8588 293.626 60.062 293.034C60.0326 293.012 60.0036 292.989 59.9755 292.966C45.2412 281.315 43.3329 277.948 42.6321 275.504C40.7064 268.83 33.7436 264.973 27.0642 266.879C20.467 268.973 16.6868 275.889 18.4859 282.573C22.1839 299.42 19.9234 306.201 9.50171 309.45C9.33393 309.501 9.15958 309.526 8.98422 309.526Z" fill="#133CA7"/>
<path d="M53.9059 305.932C53.429 305.933 52.9713 305.744 52.6337 305.407C51.4274 304.337 50.168 303.328 48.8603 302.385C42.424 297.501 31.6501 289.329 28.8182 279.475C28.5278 278.526 29.0614 277.521 30.0103 277.231C30.9592 276.94 31.9639 277.474 32.2545 278.423C32.2606 278.443 32.2663 278.463 32.2717 278.483C34.7872 287.187 44.9503 294.906 51.0309 299.52C52.4735 300.557 53.8569 301.674 55.1744 302.866C55.875 303.569 55.8733 304.707 55.1703 305.407C54.8346 305.742 54.3801 305.931 53.9059 305.932Z" fill="#133CA7"/>
<path d="M26.9528 320.307H26.8377C25.8474 320.245 25.0944 319.392 25.1559 318.402C25.2852 316.321 26.234 305.935 32.3433 305.935C36.1526 306.378 39.5062 308.652 41.3276 312.027C41.7196 312.596 42.1493 313.139 42.6141 313.651C43.3035 314.365 43.2837 315.502 42.5699 316.192C41.8735 316.865 40.7696 316.865 40.0732 316.192C39.4794 315.554 38.9308 314.875 38.431 314.161C36.9001 312.092 35.0098 309.526 32.3432 309.526C30.3953 309.526 28.9759 314.916 28.7495 318.621C28.6907 319.57 27.9032 320.308 26.9528 320.307Z" fill="#133CA7"/>
<path d="M16.1716 316.713C15.1793 316.715 14.3732 315.912 14.3713 314.92C14.3698 314.138 14.874 313.445 15.6182 313.206C20.1606 311.729 23.165 302.299 21.6484 297.494C21.2932 296.567 21.7564 295.528 22.6829 295.173C23.6094 294.818 24.6486 295.281 25.0039 296.207C25.03 296.275 25.0519 296.345 25.0696 296.416C26.9779 302.385 23.6322 314.384 16.725 316.641C16.5454 316.694 16.3588 316.718 16.1716 316.713Z" fill="#133CA7"/>
<path d="M1.79691 280.776C0.804542 280.776 0 279.971 0 278.979C0.0198777 262.117 13.6843 248.452 30.5465 248.432C47.1279 248.432 53.0611 258.01 57.3915 265.003C59.4364 268.298 61.2008 271.148 63.447 271.878C64.3941 272.174 64.9215 273.182 64.6252 274.129C64.3289 275.076 63.3207 275.604 62.3736 275.308C62.3611 275.304 62.3488 275.3 62.3365 275.295C58.8362 274.16 56.7519 270.792 54.3369 266.893C50.2329 260.27 45.1263 252.026 30.5465 252.026C15.6674 252.042 3.60949 264.1 3.59366 278.979C3.59366 279.971 2.78928 280.776 1.79691 280.776Z" fill="#133CA7"/>
<path d="M3.59366 293.354C2.91242 293.355 2.28897 292.971 1.98373 292.362C0.958342 290.431 0.286543 288.333 0 286.166C0 285.174 0.804543 284.369 1.79691 284.369C2.78928 284.369 3.59383 285.174 3.59383 286.166C3.89233 287.768 4.43408 289.314 5.20021 290.752C5.64477 291.639 5.28596 292.719 4.39871 293.163C4.14872 293.288 3.87312 293.354 3.59366 293.354Z" fill="#133CA7"/>
<path d="M55.7024 255.62C55.0734 255.62 54.49 255.291 54.1642 254.754C52.3961 251.835 42.5637 244.838 28.7496 244.838C14.3748 244.838 6.69136 252.18 5.1281 254.754C4.64396 255.62 3.54917 255.93 2.68297 255.445C1.81677 254.961 1.50698 253.866 1.99129 253C2.01252 252.962 2.03526 252.925 2.05918 252.888C4.02488 249.651 12.6535 241.245 28.7497 241.245C43.8865 241.245 54.7719 248.827 57.237 252.892C57.7512 253.741 57.4796 254.846 56.6308 255.36C56.3506 255.529 56.0297 255.619 55.7024 255.62Z" fill="#133CA7"/>
<path d="M48.5151 241.245C48.3158 241.245 48.1179 241.213 47.9294 241.148C47.2106 240.9 46.5135 240.641 45.8271 240.39C40.3959 238.266 34.5726 237.332 28.7498 237.651C20.1248 237.651 18.1807 238.647 15.4962 240.023C14.835 240.365 14.1342 240.72 13.3149 241.101C12.4059 241.503 11.3431 241.092 10.9412 240.183C10.5392 239.274 10.9503 238.211 11.8594 237.809C12.6176 237.468 13.261 237.137 13.8719 236.825C16.8691 235.279 19.2517 234.057 28.7499 234.057C34.9998 233.739 41.2463 234.748 47.0779 237.019C47.739 237.263 48.4004 237.511 49.0975 237.738C50.0423 238.041 50.5625 239.053 50.2593 239.998C50.0167 240.753 49.308 241.26 48.5151 241.245Z" fill="#133CA7"/>
<path d="M62.8897 266.401C62.1082 266.4 61.4167 265.895 61.179 265.15C60.2454 262.789 59.103 260.516 57.7649 258.358C57.2449 257.513 57.5087 256.406 58.3544 255.886C59.1998 255.366 60.3068 255.629 60.8268 256.475C62.3183 258.879 63.5815 261.418 64.6002 264.058C64.9019 265.003 64.38 266.014 63.4346 266.316C63.2586 266.372 63.0746 266.401 62.8897 266.401Z" fill="#133CA7"/>
</svg>
