<svg width="1005" height="603" viewBox="0 0 1005 603" fill="none" xmlns="http://www.w3.org/2000/svg">
<path d="M586.5 107H1003" stroke="#133CA7" stroke-width="3"/>
<path d="M396.487 2.21152H360.967C335.594 1.20956 2.00003 -4.10023 2 210.937C1.99997 460.588 413.395 426.044 459.522 429.049V145.493L468.417 150.503L477.311 145.493L485.792 150.503L494.893 145.493L505.029 150.503L516.406 145.493L527.782 150.503L538.331 145.493L548.467 150.503L562.74 145.493L576.998 150.503L590.779 145.493L605.987 150.503L623.095 145.493L635.926 150.503L645.43 145.493L658.737 150.503L672.518 145.493L683.923 150.503L698.18 145.493L711.487 150.503L725.743 145.493L740 150.503V602.5" stroke="#133CA7" stroke-width="3"/>
<path d="M586 148.5V67H1003.5V409" stroke="#133CA7" stroke-width="3"/>
<circle cx="620.5" cy="85" r="4.5" stroke="#133CA7" stroke-width="3"/>
<circle cx="603" cy="85" r="4.5" stroke="#133CA7" stroke-width="3"/>
<circle cx="640.5" cy="85" r="4.5" stroke="#133CA7" stroke-width="3"/>
</svg>
