<svg width="370" height="142" viewBox="0 0 370 142" fill="none" xmlns="http://www.w3.org/2000/svg">
<path d="M367.884 113.841C368.279 103.139 367.884 77.3766 363.148 59.9372C362.359 59.0124 361.491 55.4188 364.332 48.443C367.884 39.7233 371.831 23.4729 350.913 21.0948C329.995 18.7167 334.336 43.6868 336.31 47.254C338.283 50.8211 341.835 61.5226 339.862 67.8642C337.888 74.2058 333.152 88.8708 334.336 95.2124C335.284 100.286 334.731 108.16 334.336 111.463H325.259C325.39 108.292 324.864 100.841 321.706 96.4015C317.76 90.8525 319.338 79.3584 321.706 76.5839C324.075 73.8095 333.152 51.6138 310.655 48.443C288.158 45.2722 290.132 69.846 292.895 76.5839C295.657 83.3219 295.263 92.4379 292.895 96.4015C290.526 100.365 287.369 111.859 290.132 120.182C292.342 126.841 292.895 136.169 292.895 140H278.291C278.686 129.431 279.081 107.579 277.502 104.725C275.529 101.158 272.371 93.627 277.502 83.7182C282.633 73.8095 284.606 53.5956 268.819 49.6321C266.247 48.9863 263.873 48.8035 261.715 49.0031M-18 137.622H245.927C240.796 122.561 248.295 104.725 252.242 93.627C256.189 82.5292 250.269 83.7182 247.506 71.4314C245.193 61.1465 250.624 50.0284 261.715 49.0031M297.236 49.6321C295.789 48.443 293.052 44.9551 293.684 40.516C294.473 34.9671 303.156 31.7963 301.972 19.5094C300.788 7.22258 292.895 1.27732 283.028 2.07003C273.16 2.86273 265.661 11.9788 268.819 24.2657C271.976 36.5526 276.713 35.3635 273.555 44.0832C270.398 52.8029 264.477 65.0898 265.267 84.9073C265.898 100.761 265.53 116.087 265.267 121.768H228.561C227.903 110.802 227.772 87.2854 232.508 80.9438C238.428 73.0168 238.823 63.5043 234.482 59.9372C230.14 56.3701 226.193 29.8146 247.506 32.1927C252.242 33.3587 261.715 38.3532 261.715 49.0031" stroke="#00B2FF" stroke-width="3"/>
</svg>
